<svg width="14" height="13" viewBox="0 0 14 13" fill="none" xmlns="http://www.w3.org/2000/svg">
<path d="M1.57921 5L2.66254 1.625H10.607L11.6903 5M10.607 8.75C10.3197 8.75 10.0441 8.63147 9.84096 8.4205C9.63779 8.20952 9.52365 7.92337 9.52365 7.625C9.52365 7.32663 9.63779 7.04048 9.84096 6.8295C10.0441 6.61853 10.3197 6.5 10.607 6.5C10.8943 6.5 11.1699 6.61853 11.373 6.8295C11.5762 7.04048 11.6903 7.32663 11.6903 7.625C11.6903 7.92337 11.5762 8.20952 11.373 8.4205C11.1699 8.63147 10.8943 8.75 10.607 8.75ZM2.66254 8.75C2.37523 8.75 2.09968 8.63147 1.89651 8.4205C1.69335 8.20952 1.57921 7.92337 1.57921 7.625C1.57921 7.32663 1.69335 7.04048 1.89651 6.8295C2.09968 6.61853 2.37523 6.5 2.66254 6.5C2.94986 6.5 3.22541 6.61853 3.42858 6.8295C3.63174 7.04048 3.74588 7.32663 3.74588 7.625C3.74588 7.92337 3.63174 8.20952 3.42858 8.4205C3.22541 8.63147 2.94986 8.75 2.66254 8.75ZM11.6325 1.25C11.4881 0.815 11.0837 0.5 10.607 0.5H2.66254C2.18588 0.5 1.78143 0.815 1.63699 1.25L0.134766 5.75V11.75C0.134766 11.9489 0.210857 12.1397 0.3463 12.2803C0.481743 12.421 0.665443 12.5 0.856988 12.5H1.57921C1.77076 12.5 1.95446 12.421 2.0899 12.2803C2.22534 12.1397 2.30143 11.9489 2.30143 11.75V11H10.9681V11.75C10.9681 11.9489 11.0442 12.1397 11.1796 12.2803C11.3151 12.421 11.4988 12.5 11.6903 12.5H12.4125C12.6041 12.5 12.7878 12.421 12.9232 12.2803C13.0587 12.1397 13.1348 11.9489 13.1348 11.75V5.75L11.6325 1.25Z" fill="#8A8A8A" fill-opacity="0.6"/>
</svg>
