<svg width="13" height="14" viewBox="0 0 13 14" fill="none" xmlns="http://www.w3.org/2000/svg">
<path d="M10.3181 12.1667L11.5931 13.2292V13.5833H1.67643V13.2292L2.95143 12.1667H1.67643C1.30071 12.1667 0.940374 12.0174 0.674698 11.7517C0.409021 11.4861 0.259766 11.1257 0.259766 10.75V2.95833C0.259766 2.20689 0.558277 1.48622 1.08963 0.954864C1.62098 0.423511 2.34165 0.125 3.0931 0.125H10.1764C10.9279 0.125 11.6485 0.423511 12.1799 0.954864C12.7113 1.48622 13.0098 2.20689 13.0098 2.95833V10.75C13.0098 11.1257 12.8605 11.4861 12.5948 11.7517C12.3292 12.0174 11.9688 12.1667 11.5931 12.1667H10.3181ZM5.92643 6.5V1.54167H3.0931C2.71738 1.54167 2.35704 1.69092 2.09136 1.9566C1.82569 2.22228 1.67643 2.58261 1.67643 2.95833V6.5H5.92643ZM7.3431 6.5H11.5931V2.95833C11.5931 2.58261 11.4438 2.22228 11.1782 1.9566C10.9125 1.69092 10.5522 1.54167 10.1764 1.54167H7.3431V6.5ZM3.44727 10.75C3.72906 10.75 3.99931 10.6381 4.19857 10.4388C4.39782 10.2395 4.50977 9.96929 4.50977 9.6875C4.50977 9.40571 4.39782 9.13546 4.19857 8.9362C3.99931 8.73694 3.72906 8.625 3.44727 8.625C3.16547 8.625 2.89522 8.73694 2.69596 8.9362C2.49671 9.13546 2.38477 9.40571 2.38477 9.6875C2.38477 9.96929 2.49671 10.2395 2.69596 10.4388C2.89522 10.6381 3.16547 10.75 3.44727 10.75ZM9.82227 10.75C10.1041 10.75 10.3743 10.6381 10.5736 10.4388C10.7728 10.2395 10.8848 9.96929 10.8848 9.6875C10.8848 9.40571 10.7728 9.13546 10.5736 8.9362C10.3743 8.73694 10.1041 8.625 9.82227 8.625C9.54047 8.625 9.27022 8.73694 9.07096 8.9362C8.87171 9.13546 8.75977 9.40571 8.75977 9.6875C8.75977 9.96929 8.87171 10.2395 9.07096 10.4388C9.27022 10.6381 9.54047 10.75 9.82227 10.75Z" fill="#8A8A8A" fill-opacity="0.6"/>
</svg>
