<svg width="10" height="15" viewBox="0 0 10 15" fill="none" xmlns="http://www.w3.org/2000/svg">
<path d="M6.24007 3.36689C6.92462 3.36689 7.48001 2.8115 7.48001 2.12696C7.48001 1.44241 6.92462 0.887024 6.24007 0.887024C5.55553 0.887024 5.00014 1.44241 5.00014 2.12696C5.00014 2.8115 5.55553 3.36689 6.24007 3.36689ZM8.68119 7.21843L8.07931 6.91361L7.82874 6.15415C7.44901 5.00205 6.3899 4.19609 5.18871 4.19351C4.25876 4.19093 3.74471 4.45441 2.77859 4.84448C2.22062 5.06921 1.7634 5.49544 1.49475 6.03791L1.32167 6.38923C1.12018 6.79737 1.28292 7.29334 1.68849 7.49742C2.09146 7.70149 2.58227 7.53616 2.78634 7.12802L2.95942 6.7767C3.04983 6.59588 3.19965 6.45381 3.38564 6.37889L4.07794 6.09991L3.68529 7.66791C3.55097 8.20521 3.69563 8.7761 4.07019 9.18682L5.61752 10.8762C5.80351 11.0803 5.93526 11.3257 6.00242 11.5918L6.47514 13.4853C6.58622 13.927 7.0357 14.1982 7.47742 14.0871C7.91915 13.9761 8.19038 13.5266 8.07931 13.0849L7.50584 10.7858C7.43867 10.5198 7.30693 10.2718 7.12094 10.0703L5.94559 8.78643L6.3899 7.01178L6.53197 7.438C6.66888 7.8539 6.96337 8.19746 7.35085 8.39378L7.95273 8.6986C8.35571 8.90267 8.84651 8.73735 9.05059 8.3292C9.24949 7.92364 9.08675 7.4225 8.68119 7.21843ZM2.76826 10.853C2.6856 11.0622 2.5616 11.2508 2.40145 11.4084L1.10985 12.7025C0.786951 13.0254 0.786951 13.5498 1.10985 13.8727C1.43275 14.1956 1.95455 14.1956 2.27745 13.8727L3.81187 12.3383C3.96945 12.1807 4.09344 11.9922 4.17868 11.7829L4.52742 10.9098C3.09891 9.35215 3.52772 9.83004 3.30298 9.52264L2.76826 10.853Z" fill="#2A2A2A"/>
</svg>
