<svg width="20" height="21" viewBox="0 0 20 21" fill="none" xmlns="http://www.w3.org/2000/svg">
<path d="M0 1.35714C0 1.12981 0.0903121 0.911797 0.251069 0.751051C0.411825 0.590306 0.629858 0.5 0.857203 0.5H1.49496C2.58075 0.5 3.23223 1.23029 3.60368 1.90914C3.8517 2.36171 4.03114 2.88629 4.17172 3.36171L4.28601 3.35714H18.5704C19.5191 3.35714 20.2048 4.26457 19.9443 5.17771L17.855 12.5023C17.6676 13.1593 17.2713 13.7373 16.7261 14.1489C16.1808 14.5605 15.5162 14.7833 14.833 14.7834H8.03485C7.34622 14.7835 6.67664 14.5573 6.12903 14.1399C5.58141 13.7224 5.18608 13.1366 5.00378 12.4726L4.13515 9.30457L2.69504 4.44971L2.6939 4.44057C2.5156 3.79257 2.34874 3.18571 2.09958 2.73314C1.8607 2.29314 1.66869 2.21429 1.4961 2.21429H0.857203C0.629858 2.21429 0.411825 2.12398 0.251069 1.96323C0.0903121 1.80249 0 1.58447 0 1.35714ZM7.42909 20.5C8.03534 20.5 8.61676 20.2592 9.04545 19.8305C9.47413 19.4019 9.71496 18.8205 9.71496 18.2143C9.71496 17.6081 9.47413 17.0267 9.04545 16.598C8.61676 16.1694 8.03534 15.9286 7.42909 15.9286C6.82284 15.9286 6.24142 16.1694 5.81273 16.598C5.38405 17.0267 5.14322 17.6081 5.14322 18.2143C5.14322 18.8205 5.38405 19.4019 5.81273 19.8305C6.24142 20.2592 6.82284 20.5 7.42909 20.5ZM15.4296 20.5C16.0359 20.5 16.6173 20.2592 17.046 19.8305C17.4747 19.4019 17.7155 18.8205 17.7155 18.2143C17.7155 17.6081 17.4747 17.0267 17.046 16.598C16.6173 16.1694 16.0359 15.9286 15.4296 15.9286C14.8234 15.9286 14.242 16.1694 13.8133 16.598C13.3846 17.0267 13.1438 17.6081 13.1438 18.2143C13.1438 18.8205 13.3846 19.4019 13.8133 19.8305C14.242 20.2592 14.8234 20.5 15.4296 20.5Z" fill="#F0F0F0"/>
</svg>
