<svg width="22" height="20" viewBox="0 0 22 20" fill="none" xmlns="http://www.w3.org/2000/svg">
<path d="M0.547492 8.88359C0.196853 9.23582 -4.3153e-07 9.71259 -4.09805e-07 10.2096C-3.8808e-07 10.7066 0.196853 11.1834 0.547492 11.5356L8.04749 19.0356C8.22163 19.2097 8.42835 19.3479 8.65587 19.4421C8.88338 19.5363 9.12723 19.5848 9.37349 19.5848C9.87084 19.5848 10.3478 19.3873 10.6995 19.0356C11.0512 18.6839 11.2487 18.2069 11.2487 17.7096C11.2487 17.2122 11.0512 16.7353 10.6995 16.3836L6.40049 12.0846L19.8735 12.0846C20.3708 12.0846 20.8477 11.887 21.1993 11.5354C21.551 11.1838 21.7485 10.7069 21.7485 10.2096C21.7485 9.71231 21.551 9.2354 21.1993 8.88377C20.8477 8.53213 20.3708 8.33459 19.8735 8.33459L6.40049 8.33459L10.6995 4.03559C10.8736 3.86146 11.0118 3.65473 11.106 3.42722C11.2002 3.1997 11.2487 2.95585 11.2487 2.70959C11.2487 2.46333 11.2002 2.21948 11.106 1.99197C11.0118 1.76445 10.8736 1.55772 10.6995 1.38359C10.5254 1.20946 10.3186 1.07133 10.0911 0.977087C9.8636 0.882846 9.61975 0.834344 9.37349 0.834344C9.12723 0.834344 8.88338 0.882846 8.65587 0.977087C8.42835 1.07133 8.22163 1.20946 8.04749 1.38359L0.547492 8.88359Z" fill="white"/>
</svg>
