<svg width="22" height="19" viewBox="0 0 22 19" fill="none" xmlns="http://www.w3.org/2000/svg">
<path d="M0.547492 8.04924C0.196853 8.40147 -4.3153e-07 8.87824 -4.09805e-07 9.37524C-3.8808e-07 9.87224 0.196853 10.349 0.547492 10.7012L8.04749 18.2012C8.22163 18.3754 8.42835 18.5135 8.65587 18.6077C8.88338 18.702 9.12723 18.7505 9.37349 18.7505C9.87084 18.7505 10.3478 18.5529 10.6995 18.2012C11.0512 17.8496 11.2487 17.3726 11.2487 16.8752C11.2487 16.3779 11.0512 15.9009 10.6995 15.5492L6.40049 11.2502L19.8735 11.2502C20.3708 11.2502 20.8477 11.0527 21.1993 10.7011C21.551 10.3494 21.7485 9.87252 21.7485 9.37524C21.7485 8.87796 21.551 8.40105 21.1993 8.04941C20.8477 7.69778 20.3708 7.50024 19.8735 7.50024L6.40049 7.50024L10.6995 3.20124C10.8736 3.02711 11.0118 2.82038 11.106 2.59286C11.2002 2.36535 11.2487 2.1215 11.2487 1.87524C11.2487 1.62898 11.2002 1.38513 11.106 1.15762C11.0118 0.930101 10.8736 0.723371 10.6995 0.54924C10.5254 0.375106 10.3186 0.236976 10.0911 0.142736C9.8636 0.0484958 9.61975 -6.14254e-06 9.37349 -6.13177e-06C9.12723 -6.12101e-06 8.88338 0.0484959 8.65587 0.142736C8.42835 0.236976 8.22163 0.375106 8.04749 0.54924L0.547492 8.04924Z" fill="#8A8A8A"/>
</svg>
