<svg width="14" height="12" viewBox="0 0 14 12" fill="none" xmlns="http://www.w3.org/2000/svg">
<path d="M7.35938 1.89258C8.80604 0.39565 10.3337 0.255453 11.4736 0.774414C12.6446 1.30765 13.5 2.57377 13.5 4.08008C13.5 5.61786 12.8679 6.80366 11.9629 7.81836C11.0409 8.85211 9.87788 9.66706 8.81836 10.498L8.81738 10.499C8.44981 10.7882 8.1199 11.0434 7.80176 11.2285C7.48354 11.4137 7.22361 11.5 7 11.5C6.77645 11.5 6.51674 11.4129 6.19824 11.2275C5.87989 11.0422 5.54955 10.7877 5.18164 10.499H5.18262C4.12312 9.66704 2.95941 8.85147 2.03711 7.81738C1.1322 6.80266 0.5 5.61701 0.5 4.0791C0.500089 2.57253 1.3555 1.30639 2.52637 0.773438C3.66627 0.254824 5.19399 0.395684 6.64062 1.89258L7 2.26465L7.35938 1.89258Z" stroke="#2A2A2A"/>
</svg>
