<svg width="18" height="21" viewBox="0 0 18 21" fill="none" xmlns="http://www.w3.org/2000/svg">
<path d="M0 18.0526V7.98246C0 7.62814 0.0798748 7.29247 0.239625 6.97544C0.399375 6.65842 0.6195 6.39734 0.9 6.19221L7.65 1.15713C8.04375 0.858752 8.49375 0.709564 9 0.709564C9.50625 0.709564 9.95625 0.858752 10.35 1.15713L17.1 6.19221C17.3812 6.39734 17.6017 6.65842 17.7615 6.97544C17.9212 7.29247 18.0007 7.62814 18 7.98246V18.0526C18 18.668 17.7795 19.195 17.3385 19.6336C16.8975 20.0723 16.368 20.2912 15.75 20.2904H12.375C12.0562 20.2904 11.7892 20.183 11.574 19.9682C11.3587 19.7534 11.2507 19.4878 11.25 19.1715V13.577C11.25 13.26 11.142 12.9944 10.926 12.7803C10.71 12.5662 10.443 12.4588 10.125 12.4581H7.875C7.55625 12.4581 7.28925 12.5655 7.074 12.7803C6.85875 12.9952 6.75075 13.2607 6.75 13.577V19.1715C6.75 19.4886 6.642 19.7545 6.426 19.9693C6.21 20.1841 5.943 20.2912 5.625 20.2904H2.25C1.63125 20.2904 1.10175 20.0715 0.6615 19.6336C0.22125 19.1958 0.00075 18.6688 0 18.0526Z" fill="#F0F0F0"/>
</svg>
