<svg width="33" height="33" viewBox="0 0 33 33" fill="none" xmlns="http://www.w3.org/2000/svg">
<path fill-rule="evenodd" clip-rule="evenodd" d="M17.0473 24.4805C19.0864 23.4218 26.125 19.272 26.125 12.375C26.125 11.111 25.876 9.85943 25.3923 8.69167C24.9086 7.52391 24.1997 6.46286 23.3059 5.5691C22.4121 4.67533 21.3511 3.96636 20.1833 3.48266C19.0156 2.99896 17.764 2.75 16.5 2.75C15.236 2.75 13.9844 2.99896 12.8167 3.48266C11.6489 3.96636 10.5879 4.67533 9.6941 5.5691C8.80033 6.46286 8.09136 7.52391 7.60766 8.69167C7.12396 9.85943 6.875 11.111 6.875 12.375C6.875 19.272 13.9136 23.4231 15.9528 24.4805C16.1217 24.5687 16.3094 24.6148 16.5 24.6148C16.6906 24.6148 16.8783 24.5687 17.0473 24.4805ZM16.5 16.5C17.594 16.5 18.6432 16.0654 19.4168 15.2918C20.1904 14.5182 20.625 13.469 20.625 12.375C20.625 11.281 20.1904 10.2318 19.4168 9.45818C18.6432 8.6846 17.594 8.25 16.5 8.25C15.406 8.25 14.3568 8.6846 13.5832 9.45818C12.8096 10.2318 12.375 11.281 12.375 12.375C12.375 13.469 12.8096 14.5182 13.5832 15.2918C14.3568 16.0654 15.406 16.5 16.5 16.5Z" fill="#FFC500"/>
<path d="M24.8353 22.6875C25.6809 23.3145 26.125 24.0254 26.125 24.75C26.125 25.4746 25.6809 26.1855 24.8353 26.8125C23.991 27.4395 22.7755 27.9606 21.3125 28.3223C19.8495 28.6839 18.1899 28.875 16.5 28.875C14.8101 28.875 13.1505 28.6839 11.6875 28.3223C10.2245 27.9606 9.009 27.4395 8.16475 26.8125C7.31913 26.1855 6.875 25.4746 6.875 24.75C6.875 24.0254 7.31913 23.3145 8.16475 22.6875" stroke="#FFC500" stroke-width="2.66667" stroke-linecap="round"/>
</svg>
