<svg width="16" height="16" viewBox="0 0 16 16" fill="none" xmlns="http://www.w3.org/2000/svg">
<path d="M9.55769 7.24998C9.55769 7.59681 9.41992 7.92942 9.17468 8.17466C8.92944 8.4199 8.59682 8.55768 8.25 8.55768C7.90318 8.55768 7.57056 8.4199 7.32532 8.17466C7.08008 7.92942 6.94231 7.59681 6.94231 7.24998C6.94231 6.90316 7.08008 6.57055 7.32532 6.32531C7.57056 6.08007 7.90318 5.94229 8.25 5.94229C8.59682 5.94229 8.92944 6.08007 9.17468 6.32531C9.41992 6.57055 9.55769 6.90316 9.55769 7.24998Z" fill="#2A2A2A"/>
<path d="M7.72235 12.9136C7.09405 12.474 6.51023 11.974 5.97919 11.4209C5.04615 10.4447 4 8.97939 4 7.24997C4 5.1217 5.72681 2.99997 8.25 2.99997C10.7732 2.99997 12.5 5.1217 12.5 7.24997C12.5 8.97939 11.4538 10.4447 10.5208 11.4209C9.98977 11.974 9.40595 12.474 8.77765 12.9136C8.60569 13.0332 8.42719 13.1431 8.25 13.2555C8.07346 13.1431 7.89431 13.0332 7.72235 12.9136ZM8.25 4.30766C6.52319 4.30766 5.30769 5.76705 5.30769 7.24997C5.30769 8.46285 6.05962 9.61297 6.92465 10.5166C7.33278 10.9421 7.77614 11.3323 8.25 11.683C8.72383 11.3325 9.1672 10.9425 9.57535 10.5172C10.4404 9.61297 11.1923 8.46351 11.1923 7.24997C11.1923 5.76705 9.97681 4.30766 8.25 4.30766Z" fill="#2A2A2A"/>
</svg>
