<svg width="19" height="19" viewBox="0 0 19 19" fill="none" xmlns="http://www.w3.org/2000/svg">
<path d="M9.5 2.7V1M9.5 18V16.3M16.3 9.5H18M1 9.5H2.7M9.5 3.38C8.28958 3.38 7.10634 3.73893 6.09991 4.41141C5.09348 5.08388 4.30907 6.03969 3.84586 7.15798C3.38265 8.27626 3.26145 9.50679 3.49759 10.694C3.73374 11.8811 4.31661 12.9716 5.17251 13.8275C6.0284 14.6834 7.11888 15.2663 8.30605 15.5024C9.49321 15.7385 10.7237 15.6174 11.842 15.1541C12.9603 14.6909 13.9161 13.9065 14.5886 12.9001C15.2611 11.8937 15.62 10.7104 15.62 9.5C15.62 7.87688 14.9752 6.32023 13.8275 5.17251C12.6798 4.02478 11.1231 3.38 9.5 3.38Z" stroke="#8A8A8A" stroke-width="1.5" stroke-linecap="round" stroke-linejoin="round"/>
</svg>
