<svg width="12" height="12" viewBox="0 0 12 12" fill="none" xmlns="http://www.w3.org/2000/svg">
<g clip-path="url(#clip0_727_6399)">
<path d="M5.99174 0C2.99399 0 0.555176 2.43898 0.555176 5.43673C0.555176 8.25448 2.72661 10.611 5.51886 10.8519L4.44243 11.3975C4.30949 11.4705 4.23036 11.6345 4.30911 11.7641L4.34718 11.8625C4.4263 11.9921 4.59768 12.038 4.73023 11.9655L6.52685 11.0456C6.52911 11.0441 6.53154 11.0445 6.5338 11.043L6.65436 10.977C6.72093 10.9404 6.76499 10.8806 6.7826 10.814C6.80099 10.7475 6.79256 10.6734 6.75299 10.6089L6.68155 10.4917C6.68044 10.4895 6.67818 10.488 6.67686 10.4859L5.56723 8.75191C5.48848 8.62235 5.31749 8.57641 5.18418 8.64898L5.09699 8.70973C4.96405 8.78229 4.95524 8.96979 5.03399 9.09899L5.68874 10.1147C5.68518 10.1145 5.68199 10.1132 5.6786 10.113C3.2261 9.95212 1.30516 7.89769 1.30516 5.43675C1.30518 2.85244 3.4076 0.75 5.99174 0.75C8.57624 0.75 10.6905 2.85244 10.6905 5.43676C10.6905 6.92476 10.0071 8.29145 8.81549 9.18639C8.64994 9.31089 8.61656 9.54602 8.74088 9.71159C8.86537 9.87752 9.10051 9.91052 9.26607 9.78621C10.6481 8.74802 11.4407 7.16271 11.4407 5.43677C11.4405 2.43901 8.98969 0 5.99174 0Z" fill="#8A8A8A"/>
</g>
<defs>
<clipPath id="clip0_727_6399">
<rect width="12" height="12" fill="white"/>
</clipPath>
</defs>
</svg>
