<svg width="19" height="19" viewBox="0 0 19 19" fill="none" xmlns="http://www.w3.org/2000/svg">
<path d="M17.9207 18.6733L10.8759 11.6285C10.3134 12.1078 9.66656 12.4786 8.93531 12.7411C8.20406 13.0036 7.46906 13.1349 6.73031 13.1349C4.92881 13.1349 3.40406 12.5113 2.15606 11.264C0.908058 10.0167 0.284058 8.49237 0.284058 6.69088C0.284058 4.88938 0.907307 3.36425 2.15381 2.1155C3.40031 0.86675 4.92431 0.241625 6.72581 0.240125C8.52731 0.238625 10.0528 0.862625 11.3023 2.11213C12.5518 3.36162 13.1766 4.88675 13.1766 6.6875C13.1766 7.469 13.0382 8.22538 12.7614 8.95663C12.4847 9.68788 12.1209 10.3134 11.6702 10.8331L18.7149 17.8767L17.9207 18.6733ZM6.73143 12.0087C8.22393 12.0087 9.48393 11.495 10.5114 10.4675C11.5389 9.44 12.0527 8.17962 12.0527 6.68637C12.0527 5.19312 11.5389 3.93312 10.5114 2.90637C9.48393 1.87962 8.22393 1.36588 6.73143 1.36512C5.23893 1.36437 3.97856 1.87812 2.95031 2.90637C1.92206 3.93462 1.40831 5.19462 1.40906 6.68637C1.40981 8.17812 1.92356 9.43813 2.95031 10.4664C3.97706 11.4946 5.23706 12.0084 6.73031 12.0076" fill="#2A2A2A"/>
</svg>
