<svg width="16" height="14" viewBox="0 0 16 14" fill="none" xmlns="http://www.w3.org/2000/svg">
<path d="M2.11198 14H13.888C15.189 14 16 13.0985 16 11.9609C16 11.6211 15.9083 11.2737 15.7169 10.9563L9.8175 1.03422C9.4192 0.361868 8.72315 0 8.00392 0C7.2922 0 6.58831 0.361868 6.1825 1.03422L0.283056 10.9635C0.0984065 11.2657 0.000688144 11.61 0 11.9609C0 13.0988 0.818805 14 2.11198 14ZM2.12733 12.84C1.59158 12.84 1.23931 12.4189 1.23931 11.9609C1.23931 11.8278 1.26249 11.6728 1.33921 11.5177L7.23082 1.59562C7.39928 1.31508 7.70552 1.18206 8.00392 1.18206C8.30232 1.18206 8.59288 1.30752 8.76134 1.59562L14.6533 11.5249C14.7297 11.6731 14.7679 11.8278 14.7679 11.9609C14.7679 12.4189 14.4006 12.8403 13.8727 12.8403L2.12733 12.84ZM8.00392 9.02053C8.3712 9.02053 8.58505 8.81375 8.59288 8.4295L8.69997 4.53627C8.7078 4.15927 8.40157 3.87873 7.99608 3.87873C7.58309 3.87873 7.2922 4.15202 7.29971 4.52871L7.39928 8.4295C7.40679 8.8065 7.62129 9.02053 8.00392 9.02053ZM8.00392 11.4215C8.4476 11.4215 8.8299 11.0817 8.8299 10.6534C8.8299 10.2174 8.45511 9.88486 8.00392 9.88486C7.5524 9.88486 7.17728 10.2247 7.17728 10.6534C7.17728 11.0745 7.55991 11.4215 8.00392 11.4215Z" fill="#8A8A8A"/>
</svg>
