<svg width="11" height="13" viewBox="0 0 11 13" fill="none" xmlns="http://www.w3.org/2000/svg">
<path d="M6.59967 5.45767C6.59967 5.86952 6.43606 6.2645 6.14484 6.55573C5.85361 6.84695 5.45863 7.01055 5.04678 7.01055C4.63493 7.01055 4.23995 6.84695 3.94873 6.55573C3.6575 6.2645 3.4939 5.86952 3.4939 5.45767C3.4939 5.04582 3.6575 4.65084 3.94873 4.35961C4.23995 4.06839 4.63493 3.90479 5.04678 3.90479C5.45863 3.90479 5.85361 4.06839 6.14484 4.35961C6.43606 4.65084 6.59967 5.04582 6.59967 5.45767Z" fill="#8A8A8A"/>
<path d="M4.42029 12.1831C3.67419 11.661 2.98089 11.0673 2.35029 10.4104C1.24231 9.25122 0 7.51121 0 5.45752C0 2.9302 2.05058 0.410645 5.04687 0.410645C8.04317 0.410645 10.0937 2.9302 10.0937 5.45752C10.0937 7.51121 8.85144 9.25122 7.74346 10.4104C7.11285 11.0673 6.41956 11.661 5.67346 12.1831C5.46926 12.3252 5.25729 12.4556 5.04687 12.5891C4.83724 12.4556 4.62449 12.3252 4.42029 12.1831ZM5.04687 1.96353C2.99629 1.96353 1.55288 3.69655 1.55288 5.45752C1.55288 6.89782 2.44579 8.26358 3.47303 9.33663C3.95767 9.84187 4.48416 10.3052 5.04687 10.7218C5.60955 10.3055 6.13604 9.84238 6.62072 9.3374C7.64796 8.26358 8.54087 6.8986 8.54087 5.45752C8.54087 3.69655 7.09746 1.96353 5.04687 1.96353Z" fill="#8A8A8A"/>
</svg>
